<svg xmlns="http://www.w3.org/2000/svg" viewBox="0 0 64 64" width="512" height="512" role="img" aria-label="Amarendra Pratap Singh helmet logo">
  <defs>
    <linearGradient id="g" x1="0" x2="1" y1="0" y2="1">
      <stop offset="0" stop-color="#22c55e" />
      <stop offset="1" stop-color="#059669" />
    </linearGradient>
  </defs>
  <rect width="64" height="64" rx="8" fill="transparent" />
  <!-- simplified helmet outline -->
  <g fill="none" stroke="#fff" stroke-width="2" stroke-linecap="round" stroke-linejoin="round">
    <path d="M12 30c0-10 8-18 20-18s20 8 20 18v10c0 4-3 7-7 7H19c-4 0-7-3-7-7V30z" stroke-opacity="0.95"/>
    <path d="M18 35c2-3 6-6 14-6s12 3 14 6" stroke-opacity="0.9"/>
    <path d="M22 42c2 1 6 2 10 2s8-1 10-2" stroke-opacity="0.9"/>
    <path d="M42 24c0 3-3 6-6 6s-6-3-6-6" stroke-opacity="0.9"/>
  </g>
  <!-- green visor accent -->
  <path d="M18 32c3-4 7-6 14-6s11 2 14 6" fill="url(#g)" opacity="0.98"/>
  <!-- inner highlights -->
  <path d="M24 26c2 0 6-1 8-1s6 1 8 1" stroke="#bff1cf" stroke-width="0.8" fill="none" stroke-linecap="round"/>
</svg>